<svg width="24" height="24" viewBox="0 0 24 24" fill="none" xmlns="http://www.w3.org/2000/svg">
<path d="M4.69339 4.82397C5.64468 3.85013 6.78128 3.07657 8.03622 2.54888C9.29115 2.0212 10.639 1.75007 12.0004 1.75147C17.6474 1.75147 22.2254 6.32897 22.2254 11.976C22.2254 17.623 17.6474 22.201 12.0004 22.201C6.35339 22.201 1.77539 17.623 1.77539 11.976C1.77539 10.003 2.33489 8.16047 3.30289 6.59797" stroke="#FEFEFF" stroke-linecap="round" stroke-linejoin="round"/>
<path d="M15.4103 11.9119C15.4103 12.2028 15.2947 12.4818 15.0891 12.6874C14.8834 12.8931 14.6044 13.0087 14.3135 13.0087C14.0227 13.0087 13.7437 12.8931 13.538 12.6874C13.3323 12.4818 13.2168 12.2028 13.2168 11.9119C13.2168 11.3064 13.7078 10.8154 14.3133 10.8154C14.9188 10.8154 15.4103 11.3064 15.4103 11.9119Z" stroke="#FEFEFF" stroke-linecap="round" stroke-linejoin="round"/>
<path d="M12.3246 8.52003H17.6796C18.0482 8.51924 18.402 8.66485 18.6632 8.92485C18.9244 9.18486 19.0717 9.53797 19.0726 9.90653V13.9115C19.0733 14.2801 18.9276 14.6338 18.6675 14.895C18.4074 15.1561 18.0542 15.3032 17.6856 15.304H12.3246C11.9561 15.3048 11.6023 15.1592 11.3411 14.8992C11.0798 14.6392 10.9326 14.2861 10.9316 13.9175V9.91253C10.9312 9.72999 10.9668 9.54917 11.0363 9.38037C11.1058 9.21158 11.2078 9.05813 11.3366 8.92877C11.4654 8.79942 11.6184 8.6967 11.7869 8.62649C11.9554 8.55627 12.1361 8.51992 12.3186 8.51953L12.3246 8.52003Z" stroke="#FEFEFF" stroke-linecap="round" stroke-linejoin="round"/>
<path d="M17.9246 15.2808V16.6558C17.9251 16.8384 17.8896 17.0192 17.8201 17.188C17.7507 17.3568 17.6487 17.5103 17.52 17.6397C17.3912 17.7691 17.2382 17.8719 17.0698 17.9422C16.9013 18.0125 16.7206 18.0489 16.5381 18.0493H7.20461C7.02207 18.0497 6.84124 18.0142 6.67245 17.9447C6.50366 17.8752 6.3502 17.7731 6.22085 17.6443C6.0915 17.5155 5.98878 17.3625 5.91856 17.194C5.84835 17.0255 5.812 16.8449 5.81161 16.6623V7.29583C5.81121 7.1133 5.84678 6.93247 5.91627 6.76368C5.98576 6.59488 6.08781 6.44143 6.21661 6.31208C6.3454 6.18272 6.49842 6.08001 6.66691 6.00979C6.8354 5.93957 7.01607 5.90323 7.19861 5.90283H16.5311C16.8997 5.90217 17.2534 6.04791 17.5145 6.30801C17.7757 6.56811 17.9228 6.92127 17.9236 7.28983V8.54183M0.724609 8.28133L3.42211 6.30533L3.78461 9.62933" stroke="#FEFEFF" stroke-linecap="round" stroke-linejoin="round"/>
</svg>
