<svg width="24" height="24" viewBox="0 0 24 24" fill="none" xmlns="http://www.w3.org/2000/svg">
<path d="M21.2255 14.957V17.9035C21.2256 18.1627 21.1746 18.4193 21.0755 18.6587C20.9763 18.8982 20.831 19.1157 20.6478 19.299C20.4646 19.4823 20.2471 19.6276 20.0077 19.7268C19.7682 19.826 19.5116 19.877 19.2525 19.877H4.223C3.96386 19.877 3.70726 19.826 3.46785 19.7268C3.22844 19.6276 3.01092 19.4823 2.8277 19.299C2.64449 19.1157 2.49917 18.8982 2.40004 18.6587C2.30092 18.4193 2.24993 18.1627 2.25 17.9035V6.09655C2.24993 5.83736 2.30094 5.58071 2.40009 5.34124C2.49924 5.10178 2.64461 4.88419 2.82788 4.70092C3.01115 4.51766 3.22873 4.37229 3.4682 4.27314C3.70766 4.17398 3.96432 4.12298 4.2235 4.12305H19.2525C19.5116 4.12305 19.7682 4.1741 20.0077 4.27328C20.2471 4.37246 20.4646 4.51784 20.6478 4.7011C20.831 4.88436 20.9763 5.10193 21.0755 5.34136C21.1746 5.58079 21.2256 5.83741 21.2255 6.09655V9.14555" stroke="#FEFEFF" stroke-linecap="round" stroke-linejoin="round"/>
<path d="M21.1463 14.9626H15.9618C15.5795 14.9628 15.2009 14.8876 14.8476 14.7413C14.4944 14.5951 14.1734 14.3807 13.9031 14.1103C13.6328 13.84 13.4183 13.519 13.2721 13.1658C13.1259 12.8125 13.0507 12.434 13.0508 12.0516C13.0506 11.6693 13.1257 11.2906 13.272 10.9373C13.4182 10.584 13.6326 10.263 13.9029 9.99263C14.1733 9.72224 14.4942 9.50778 14.8475 9.3615C15.2008 9.21523 15.5794 9.14001 15.9618 9.14014H21.1468C21.4793 9.14014 21.7493 9.41014 21.7493 9.74314V14.3601C21.7493 14.6926 21.4793 14.9626 21.1463 14.9626Z" stroke="#FEFEFF" stroke-linecap="round" stroke-linejoin="round"/>
<path d="M16.2295 13.4379C16.9764 13.4379 17.582 12.8324 17.582 12.0854C17.582 11.3384 16.9764 10.7329 16.2295 10.7329C15.4825 10.7329 14.877 11.3384 14.877 12.0854C14.877 12.8324 15.4825 13.4379 16.2295 13.4379Z" stroke="#FEFEFF" stroke-linecap="round" stroke-linejoin="round"/>
</svg>
