<svg width="28" height="28" viewBox="0 0 28 28" fill="none" xmlns="http://www.w3.org/2000/svg">
<path d="M9.19935 20.6665L13.9993 15.8665L18.7994 20.6665L20.666 18.7998L15.866 13.9998L20.666 9.19984L18.7994 7.33317L13.9993 12.1332L9.19935 7.33317L7.33268 9.19984L12.1327 13.9998L7.33268 18.7998L9.19935 20.6665ZM13.9993 27.3332C12.1549 27.3332 10.4216 26.9832 8.79935 26.2832C7.17713 25.5832 5.76602 24.6332 4.56602 23.4332C3.36602 22.2332 2.41602 20.8221 1.71602 19.1998C1.01602 17.5776 0.666016 15.8443 0.666016 13.9998C0.666016 12.1554 1.01602 10.4221 1.71602 8.79984C2.41602 7.17762 3.36602 5.7665 4.56602 4.5665C5.76602 3.3665 7.17713 2.4165 8.79935 1.7165C10.4216 1.0165 12.1549 0.666504 13.9993 0.666504C15.8438 0.666504 17.5771 1.0165 19.1994 1.7165C20.8216 2.4165 22.2327 3.3665 23.4327 4.5665C24.6327 5.7665 25.5827 7.17762 26.2827 8.79984C26.9827 10.4221 27.3327 12.1554 27.3327 13.9998C27.3327 15.8443 26.9827 17.5776 26.2827 19.1998C25.5827 20.8221 24.6327 22.2332 23.4327 23.4332C22.2327 24.6332 20.8216 25.5832 19.1994 26.2832C17.5771 26.9832 15.8438 27.3332 13.9993 27.3332ZM13.9993 24.6665C16.9771 24.6665 19.4993 23.6332 21.566 21.5665C23.6327 19.4998 24.666 16.9776 24.666 13.9998C24.666 11.0221 23.6327 8.49984 21.566 6.43317C19.4993 4.3665 16.9771 3.33317 13.9993 3.33317C11.0216 3.33317 8.49935 4.3665 6.43268 6.43317C4.36602 8.49984 3.33268 11.0221 3.33268 13.9998C3.33268 16.9776 4.36602 19.4998 6.43268 21.5665C8.49935 23.6332 11.0216 24.6665 13.9993 24.6665Z" fill="#171515"/>
</svg>
