<svg width="22" height="21" viewBox="0 0 22 21" fill="none" xmlns="http://www.w3.org/2000/svg">
<path d="M11 0C13.7848 0 16.4555 1.10625 18.4246 3.07538C20.3938 5.04451 21.5 7.71523 21.5 10.5C21.5 13.2848 20.3938 15.9555 18.4246 17.9246C16.4555 19.8938 13.7848 21 11 21C8.21523 21 5.54451 19.8938 3.57538 17.9246C1.60625 15.9555 0.5 13.2848 0.5 10.5C0.5 7.71523 1.60625 5.04451 3.57538 3.07538C5.54451 1.10625 8.21523 0 11 0ZM11 19.5C13.3869 19.5 15.6761 18.5518 17.364 16.864C19.0518 15.1761 20 12.8869 20 10.5C20 8.11305 19.0518 5.82387 17.364 4.13604C15.6761 2.44821 13.3869 1.5 11 1.5C8.61305 1.5 6.32387 2.44821 4.63604 4.13604C2.94821 5.82387 2 8.11305 2 10.5C2 12.8869 2.94821 15.1761 4.63604 16.864C6.32387 18.5518 8.61305 19.5 11 19.5ZM12.125 15.375C12.125 15.6734 12.0065 15.9595 11.7955 16.1705C11.5845 16.3815 11.2984 16.5 11 16.5C10.7016 16.5 10.4155 16.3815 10.2045 16.1705C9.99353 15.9595 9.875 15.6734 9.875 15.375C9.875 15.0766 9.99353 14.7905 10.2045 14.5795C10.4155 14.3685 10.7016 14.25 11 14.25C11.2984 14.25 11.5845 14.3685 11.7955 14.5795C12.0065 14.7905 12.125 15.0766 12.125 15.375ZM11 4.5C11.1989 4.5 11.3897 4.57902 11.5303 4.71967C11.671 4.86032 11.75 5.05109 11.75 5.25V12C11.75 12.1989 11.671 12.3897 11.5303 12.5303C11.3897 12.671 11.1989 12.75 11 12.75C10.8011 12.75 10.6103 12.671 10.4697 12.5303C10.329 12.3897 10.25 12.1989 10.25 12V5.25C10.25 5.05109 10.329 4.86032 10.4697 4.71967C10.6103 4.57902 10.8011 4.5 11 4.5Z" fill="#555555"/>
</svg>
