<svg width="25" height="24" viewBox="0 0 25 24" fill="none" xmlns="http://www.w3.org/2000/svg">
<path d="M5.658 11.4912C5.585 12.8872 5.669 14.3732 4.422 15.3082C4.13531 15.5227 3.90266 15.8012 3.74259 16.1215C3.58253 16.4418 3.49946 16.7951 3.5 17.1532C3.5 18.1502 4.282 19.0002 5.3 19.0002H19.7C20.718 19.0002 21.5 18.1502 21.5 17.1532C21.5 16.4272 21.158 15.7432 20.578 15.3082C19.331 14.3732 19.415 12.8872 19.342 11.4912C19.252 9.73724 18.4919 8.08486 17.2186 6.87526C15.9454 5.66565 14.2562 4.99121 12.5 4.99121C10.7438 4.99121 9.05462 5.66565 7.78136 6.87526C6.5081 8.08486 5.74799 9.73724 5.658 11.4912Z" stroke="#213563" stroke-width="1.5" stroke-linecap="round" stroke-linejoin="round"/>
<path d="M15.5 19C15.5 19.7956 15.1839 20.5587 14.6213 21.1213C14.0587 21.6839 13.2956 22 12.5 22C11.7044 22 10.9413 21.6839 10.3787 21.1213C9.81607 20.5587 9.5 19.7956 9.5 19M11 3.125C11 3.953 11.672 5 12.5 5C13.328 5 14 3.953 14 3.125C14 2.297 13.328 2 12.5 2C11.672 2 11 2.297 11 3.125Z" stroke="#213563" stroke-width="1.5" stroke-linecap="round" stroke-linejoin="round"/>
</svg>
